<svg width="60" height="60" viewBox="0 0 60 60" fill="none" xmlns="http://www.w3.org/2000/svg">
<path d="M27.7019 16.3639C21.9746 16.3639 18.0146 16.3164 15.5834 16.2729C15.4126 18.779 15.2021 23.2407 15.2021 30.0001C15.2021 36.7595 15.4126 41.2212 15.5834 43.7273C18.0146 43.6838 21.9746 43.6363 27.7019 43.6363C33.4293 43.6363 37.3893 43.6838 39.8206 43.7273C39.9913 41.2212 40.2019 36.7595 40.2019 30.0001C40.2019 23.2407 39.9913 18.779 39.8206 16.2729C37.3894 16.3165 33.4293 16.3639 27.7019 16.3639Z" stroke="#063E75" stroke-width="3.75"/>
<path d="M43.5263 11.7043C43.336 10.3721 42.0795 9.68301 40.7341 9.6553C38.4408 9.60807 34.2135 9.54688 27.7019 9.54688C21.1902 9.54688 16.9631 9.60807 14.6698 9.6553C13.3243 9.68301 12.0677 10.3721 11.8776 11.7043C11.8257 12.0673 11.793 12.4836 11.793 12.9559C11.793 13.4282 11.8257 13.8444 11.8776 14.2075C12.0677 15.5398 13.3243 16.2288 14.6698 16.2566C16.9631 16.3038 21.1902 16.365 27.7019 16.365C34.2135 16.365 38.4408 16.3038 40.7341 16.2566C42.0795 16.2288 43.336 15.5398 43.5263 14.2075C43.5781 13.8444 43.6108 13.4282 43.6108 12.9559C43.6108 12.4836 43.5781 12.0673 43.5263 11.7043Z" stroke="#063E75" stroke-width="3.75"/>
<path d="M43.5263 45.7942C43.336 44.4619 42.0795 43.7729 40.7341 43.7451C38.4408 43.698 34.2135 43.6367 27.7019 43.6367C21.1902 43.6367 16.9631 43.6979 14.6698 43.7451C13.3243 43.7729 12.0677 44.4619 11.8776 45.7942C11.8257 46.1573 11.793 46.5735 11.793 47.0458C11.793 47.518 11.8257 47.9343 11.8776 48.2974C12.0677 49.6296 13.3243 50.3187 14.6698 50.3464C16.9631 50.3937 21.1902 50.4548 27.7019 50.4548C34.2135 50.4548 38.4408 50.3937 40.7341 50.3464C42.0795 50.3187 43.336 49.6296 43.5263 48.2974C43.5781 47.9343 43.6108 47.518 43.6108 47.0458C43.6108 46.5735 43.5781 46.1573 43.5263 45.7942Z" stroke="#063E75" stroke-width="3.75"/>
<path d="M27.7021 8.40948V5.00049" stroke="#063E75" stroke-width="3.75" stroke-linecap="round"/>
<path d="M27.7021 55.0003V51.5913" stroke="#063E75" stroke-width="3.75" stroke-linecap="round"/>
<path d="M15.2021 33.4087C15.2021 33.4087 28.6865 36.4575 55.9589 36.9446" stroke="#063E75" stroke-width="3.75" stroke-linecap="round"/>
<path d="M39.9553 25.7176C25.9427 24.7794 16.9168 23.4456 15.4219 23.2158" stroke="#063E75" stroke-width="3.75" stroke-linecap="round"/>
</svg>
