<svg width="94" height="36" viewBox="0 0 94 36" fill="none" xmlns="http://www.w3.org/2000/svg">
<path d="M20.0654 12.8101C20.0654 15.6131 17.793 17.8855 14.9899 17.8855C12.1869 17.8855 9.91455 15.6131 9.91455 12.8101C9.91455 10.007 12.1869 7.73462 14.9899 7.73462C17.793 7.73462 20.0654 10.007 20.0654 12.8101Z" fill="white"/>
<path d="M17.4688 3.64951C17.4688 4.5383 16.7483 5.25879 15.8595 5.25879C14.9707 5.25879 14.2502 4.5383 14.2502 3.64951C14.2502 2.76072 14.9707 2.04023 15.8595 2.04023C16.7483 2.04023 17.4688 2.76072 17.4688 3.64951Z" fill="white"/>
<path d="M25.8804 4.1035C25.8804 5.74433 24.5503 7.07446 22.9095 7.07446C21.2686 7.07446 19.9385 5.74433 19.9385 4.1035C19.9385 2.46267 21.2686 1.13254 22.9095 1.13254C24.5503 1.13254 25.8804 2.46267 25.8804 4.1035Z" fill="white"/>
<path d="M29.438 17.8854C29.438 19.3844 28.2228 20.5996 26.7237 20.5996C25.2247 20.5996 24.0095 19.3844 24.0095 17.8854C24.0095 16.3863 25.2247 15.1711 26.7237 15.1711C28.2228 15.1711 29.438 16.3863 29.438 17.8854Z" fill="white"/>
<path d="M9.54249 17.8854C9.54249 18.9802 8.655 19.8677 7.56019 19.8677C6.46542 19.8677 5.57788 18.9802 5.57788 17.8854C5.57788 16.7906 6.46542 15.9031 7.56019 15.9031C8.655 15.9031 9.54249 16.7906 9.54249 17.8854Z" fill="white"/>
<path d="M15.8594 8.5874H15.4873V4.21349H15.8594V8.5874Z" fill="white"/>
<path d="M8.06007 17.6597L7.83838 17.3608L11.3514 14.7551L11.5731 15.0539L8.06007 17.6597Z" fill="white"/>
<path d="M21.0031 3.83545H16.6292V3.46334H21.0031V3.83545Z" fill="white"/>
<path d="M17.9353 9.18677L17.7136 8.88787L21.2267 6.28217L21.4483 6.58102L17.9353 9.18677Z" fill="white"/>
<path d="M18.1348 14.2307L18.3055 13.8635L25.5602 17.235L25.3895 17.6023L18.1348 14.2307Z" fill="white"/>
<path d="M83.2855 23.624C83.4426 23.4279 83.59 23.2232 83.7584 23.0374C84.4974 22.2221 85.417 21.816 86.5215 21.8137C87.2266 21.8123 87.9055 21.9114 88.525 22.2647C89.4055 22.7668 89.8284 23.5832 90.0452 24.5329C90.2187 25.293 90.2147 26.0655 90.1981 26.8387C90.1875 27.3301 90.1817 27.8215 90.1736 28.3129C90.1527 29.5703 90.1321 30.8278 90.1101 32.0852C90.1086 32.1717 90.1036 32.2595 90.0874 32.3442C90.0511 32.5341 89.9473 32.6646 89.7397 32.6654C88.9514 32.6685 88.1631 32.673 87.375 32.6638C87.1041 32.6606 86.9419 32.4797 86.922 32.2065C86.9157 32.1201 86.9187 32.033 86.9187 31.9462C86.9185 30.2323 86.9274 28.5182 86.9122 26.8044C86.9085 26.382 86.8629 25.9524 86.772 25.5403C86.6348 24.9179 86.268 24.4676 85.609 24.3407C84.9349 24.2108 84.3287 24.3544 83.8501 24.8754C83.4129 25.3512 83.2355 25.9308 83.234 26.5651C83.2296 28.3948 83.2326 30.2245 83.2325 32.0541C83.2324 32.5097 83.0762 32.668 82.6222 32.6689C81.9352 32.6702 81.2482 32.6702 80.5612 32.6692C80.1597 32.6686 79.9945 32.5109 79.9762 32.1136C79.9728 32.0414 79.9746 31.969 79.9746 31.8967C79.9745 27.1815 79.9745 22.4663 79.9745 17.751C79.9745 17.6859 79.9734 17.6208 79.9754 17.5558C79.9879 17.1223 80.1562 16.9592 80.5915 16.959C81.2786 16.9587 81.9656 16.9583 82.6526 16.9592C83.0476 16.9597 83.2321 17.1457 83.2322 17.5447C83.2328 19.4828 83.2325 21.421 83.2325 23.3591C83.2325 23.4429 83.2325 23.5266 83.2325 23.6104C83.2502 23.6149 83.2679 23.6194 83.2855 23.624Z" fill="white"/>
<path d="M16.1642 27.3855C16.1836 27.6372 16.1926 27.8902 16.2242 28.1403C16.3736 29.3202 16.9114 30.2966 18.3337 30.433C19.4842 30.5433 20.446 30.1188 20.8119 28.8918C21.1157 27.8734 21.1224 26.8405 20.8296 25.8186C20.6714 25.2664 20.36 24.7899 19.816 24.5587C19.4789 24.4154 19.0984 24.3296 18.7321 24.3083C17.8273 24.2557 17.022 24.6061 16.5512 25.5357C16.2567 26.117 16.1778 26.7429 16.1642 27.3855ZM18.5666 32.9712C17.6811 32.9332 16.8184 32.8258 15.997 32.4904C14.532 31.8923 13.5592 30.8314 13.1261 29.3134C12.7472 27.9852 12.7571 26.6374 13.177 25.3204C13.6763 23.7548 14.7521 22.7071 16.2961 22.1865C17.8427 21.665 19.4257 21.6374 20.977 22.1623C22.8244 22.7874 23.8981 24.1231 24.2425 26.0247C24.466 27.2587 24.3965 28.4932 23.9304 29.6693C23.2514 31.3827 21.9601 32.3933 20.1742 32.7697C19.6476 32.8807 19.103 32.9064 18.5666 32.9712Z" fill="white"/>
<path d="M63.5915 26.3091C63.989 26.3091 64.3865 26.3091 64.784 26.3091C64.7913 26.3091 64.7985 26.3091 64.8057 26.309C65.3358 26.304 65.5424 26.0649 65.4535 25.5435C65.2146 24.1422 64.1383 23.8189 63.1693 24.0725C62.459 24.2584 62.0559 24.8142 61.788 25.4677C61.5784 25.979 61.8004 26.3034 62.3557 26.3083C62.7676 26.3118 63.1796 26.3089 63.5915 26.3091ZM65.0513 28.3047C64.1184 28.3047 63.1856 28.3039 62.2528 28.3051C61.8231 28.3057 61.5961 28.6214 61.7299 29.0347C62.0136 29.9108 62.6563 30.3727 63.5261 30.5367C64.6451 30.7476 65.7395 30.6304 66.7998 30.2139C67.2897 30.0215 67.6013 30.2249 67.6048 30.748C67.607 31.0806 67.603 31.4133 67.6059 31.7459C67.6083 32.0296 67.4884 32.2253 67.2217 32.3371C66.5511 32.6186 65.8524 32.8017 65.1308 32.8558C64.4696 32.9054 63.8013 32.9377 63.1404 32.9009C60.5868 32.7587 58.8216 31.226 58.464 28.7385C58.2749 27.4232 58.3159 26.1177 58.8705 24.8915C59.6667 23.1315 61.0409 22.0983 62.9701 21.859C64.0557 21.7243 65.1205 21.8266 66.1152 22.3271C67.3358 22.9411 68.0154 23.9726 68.3463 25.2654C68.5641 26.1166 68.5332 26.9853 68.5189 27.8517C68.5153 28.0695 68.382 28.2138 68.1709 28.2676C68.0675 28.294 67.9571 28.3028 67.8497 28.3031C66.9169 28.3057 65.9841 28.3046 65.0513 28.3047Z" fill="white"/>
<path d="M55.2827 27.0103C55.2827 27.6395 55.2637 28.2696 55.291 28.8977C55.3039 29.1945 55.3654 29.5034 55.4755 29.7787C55.6756 30.2788 56.2352 30.5697 56.8048 30.4302C57.4614 30.2693 57.7256 30.5606 57.6745 31.1742C57.647 31.5047 57.6711 31.8392 57.6692 32.1719C57.6675 32.4715 57.5426 32.6432 57.2531 32.7273C56.5719 32.9253 55.8729 32.9471 55.1707 32.922C54.6393 32.903 54.1251 32.8045 53.6414 32.5713C52.7486 32.1409 52.3072 31.3852 52.1395 30.4493C52.0736 30.0818 52.0474 29.7031 52.0446 29.3292C52.0339 27.9334 52.0406 26.5374 52.0403 25.1415C52.0402 24.6548 51.8432 24.4553 51.3605 24.4517C51.1725 24.4502 50.9843 24.4542 50.7963 24.4502C50.5216 24.4443 50.322 24.2684 50.3157 23.9968C50.3044 23.5124 50.305 23.0275 50.3149 22.5431C50.3203 22.2728 50.5155 22.0876 50.7878 22.0756C51.0044 22.066 51.2217 22.0726 51.4386 22.0705C51.8275 22.0667 52.0379 21.856 52.04 21.4634C52.0424 21.0367 52.0382 20.61 52.0415 20.1832C52.0436 19.8942 52.1584 19.7344 52.4298 19.6563C53.1642 19.445 53.8994 19.2363 54.6361 19.033C54.9882 18.9357 55.2775 19.1532 55.2807 19.5188C55.2865 20.1698 55.2818 20.8207 55.2831 21.4717C55.2839 21.8621 55.4922 22.0684 55.8882 22.0703C56.3005 22.0724 56.7128 22.0677 57.1251 22.0721C57.4875 22.076 57.6677 22.2613 57.669 22.6239C57.6707 23.0579 57.6713 23.4919 57.6688 23.9258C57.6669 24.2638 57.4836 24.4487 57.1485 24.4508C56.7435 24.4534 56.3384 24.4485 55.9334 24.4524C55.4816 24.4567 55.2832 24.6568 55.2828 25.1008C55.2823 25.7373 55.2827 26.3738 55.2827 27.0103Z" fill="white"/>
<path d="M75.0595 32.9062C74.0028 32.9477 72.9824 32.7822 72.056 32.2489C70.5804 31.3995 69.7279 30.1206 69.5348 28.4254C69.3928 27.1778 69.504 25.9539 70.0619 24.8102C70.8443 23.2064 72.1688 22.2913 73.8913 21.9581C75.1367 21.7171 76.3904 21.7276 77.6237 22.0759C78.0658 22.2008 78.1514 22.3298 78.1515 22.7893C78.1516 23.2303 78.1533 23.6714 78.151 24.1124C78.1485 24.5718 77.8155 24.7901 77.388 24.6128C76.4259 24.2134 75.4486 24.1597 74.4817 24.5589C73.4463 24.9863 72.9468 25.8243 72.8167 26.9073C72.7406 27.5401 72.7849 28.164 73.0232 28.7599C73.4135 29.7362 74.1636 30.2529 75.1837 30.4088C75.9552 30.5266 76.691 30.395 77.4037 30.0919C77.8104 29.9188 78.1474 30.1452 78.1508 30.5902C78.1542 31.0384 78.1514 31.4867 78.1516 31.935C78.1518 32.1933 78.0375 32.3716 77.7959 32.4745C77.1634 32.744 76.496 32.8525 75.8175 32.9032C75.5662 32.9219 75.3123 32.9062 75.0595 32.9062Z" fill="white"/>
<path d="M9.06775 32.9067C7.988 32.9462 6.94952 32.7701 6.00899 32.2113C4.60473 31.377 3.77635 30.1476 3.56439 28.5224C3.41852 27.404 3.49377 26.2988 3.89531 25.2375C4.4708 23.7166 5.55776 22.6959 7.08518 22.1779C8.52894 21.6884 10.0078 21.6999 11.4878 22.0308C11.6136 22.059 11.7356 22.1078 11.8563 22.155C12.0326 22.2241 12.1473 22.3546 12.1499 22.5461C12.1574 23.1097 12.1718 23.6743 12.1475 24.2369C12.1313 24.6118 11.7847 24.7742 11.4066 24.6134C10.5575 24.2524 9.6872 24.1953 8.80236 24.4455C7.73393 24.7476 6.97304 25.6732 6.84705 26.7786C6.7596 27.546 6.79032 28.2946 7.14868 28.9976C7.58138 29.8465 8.30243 30.277 9.22516 30.4118C9.99135 30.5238 10.7191 30.3895 11.4252 30.0907C11.8188 29.9242 12.147 30.1266 12.1593 30.5535C12.1729 31.0231 12.164 31.4935 12.162 31.9635C12.1609 32.2253 12.0284 32.387 11.7859 32.4869C11.1571 32.746 10.4977 32.8554 9.82612 32.9037C9.57458 32.9218 9.3206 32.9067 9.06775 32.9067Z" fill="white"/>
<path d="M45.786 30.335C45.4314 30.61 45.0215 30.7291 44.548 30.7168C43.8151 30.7179 43.2949 30.3903 43.1491 29.772C42.9957 29.1212 43.2163 28.5595 43.7976 28.2477C44.2159 28.0234 44.6776 27.9876 45.1329 27.9224C45.4393 27.8785 45.747 27.844 46.0539 27.8032C46.3347 27.7659 46.626 27.9709 46.6444 28.2488C46.7 29.082 46.4689 29.8054 45.786 30.335ZM49.7043 26.4673C49.7006 25.9789 49.6649 25.483 49.5725 25.0043C49.2858 23.5187 48.4301 22.5307 46.9482 22.1161C46.1355 21.8888 45.3063 21.8885 44.4752 21.9084C42.3292 21.9598 40.1834 22.0182 38.0374 22.0694C37.5647 22.0807 37.45 22.1755 37.3612 22.6436C37.0429 24.3218 36.3747 27.7865 36.2242 28.4734C36.2087 28.5438 36.2134 28.6166 36.2378 28.6844C36.3247 28.9267 36.489 29.4346 36.489 29.4346C36.5211 29.575 36.4144 29.7089 36.2703 29.7089H35.6082C35.4666 29.7089 35.3604 29.5794 35.3882 29.4406C35.3882 29.4406 35.5399 28.9238 35.6229 28.6844C35.6466 28.6162 35.6508 28.537 35.635 28.4665C35.1928 26.4936 34.7436 24.5201 34.2952 22.5487C34.2122 22.1837 34.0707 22.0721 33.6888 22.0713C33.0345 22.0699 32.3802 22.0697 31.7259 22.0712C31.4121 22.0719 31.1388 22.2854 31.0621 22.5898C30.6172 24.3551 29.7313 27.7865 29.5419 28.4665C29.522 28.5378 29.5234 28.6139 29.5458 28.6844C29.6247 28.9326 29.7786 29.4346 29.7786 29.4346C29.8107 29.575 29.7039 29.7089 29.5599 29.7089H28.8978C28.7562 29.7089 28.65 29.5794 28.6778 29.4406C28.6778 29.4406 28.8296 28.919 28.9103 28.6844C28.9331 28.6183 28.9391 28.5354 28.9267 28.4665C28.8732 28.1724 28.807 27.8834 28.7473 27.5901C28.4039 25.9015 28.0617 24.2128 27.7148 22.5249C27.6443 22.1817 27.5062 22.0733 27.1629 22.0718C26.4975 22.069 25.8315 22.087 25.1667 22.0655C24.7046 22.0506 24.5334 22.4251 24.6318 22.7841C25.495 25.9349 26.3461 29.0889 27.2015 32.2417C27.2903 32.5691 27.4242 32.6698 27.7563 32.6698C28.523 32.6695 29.2897 32.6695 30.0564 32.6697C30.4886 32.6699 30.598 32.5823 30.7018 32.1622C31.2484 29.9488 31.7958 27.7356 32.3443 25.5227C32.4569 25.5225 32.4469 25.5225 32.5595 25.5223C32.5669 25.5477 32.5737 25.5732 32.5794 25.599C33.0628 27.8035 33.5441 30.0084 34.0273 32.2129C34.1022 32.5542 34.2492 32.6683 34.605 32.6689C35.3686 32.6703 36.1323 32.6696 36.8959 32.6699C37.2142 32.6701 37.4935 32.458 37.5787 32.1513C38.278 29.6327 38.9769 27.1141 39.6755 24.5953C39.8048 24.1288 39.803 24.1058 40.2748 24.0949C41.8639 24.0582 43.4534 24.0214 45.0428 24.0207C45.8685 24.0203 46.3961 24.4784 46.5855 25.2529C46.6685 25.5924 46.4981 25.8869 46.1696 25.9363C45.6274 26.0179 45.0806 26.07 44.5399 26.1602C43.8442 26.2763 43.1388 26.3687 42.4628 26.5601C41.555 26.8172 40.821 27.3465 40.4171 28.2377C40.1177 28.8985 40.0511 29.5972 40.1347 30.315C40.259 31.383 40.7665 32.1946 41.7381 32.6795C42.3817 33.0006 43.0751 33.0591 43.7858 33.0063C44.9303 32.9212 45.8091 32.3917 46.4468 31.4434C46.4468 31.4434 46.4469 31.4434 46.4469 31.4434L46.6413 31.5042C46.6412 31.7283 46.641 31.9524 46.6415 32.1765C46.6426 32.59 46.8205 32.7727 47.232 32.7744C47.8613 32.777 48.4906 32.7771 49.1198 32.7743C49.5294 32.7724 49.7101 32.5862 49.7101 32.1743C49.7104 30.272 49.719 28.3696 49.7043 26.4673Z" fill="white"/>
</svg>
