<svg width="47" height="49" viewBox="0 0 47 49" fill="none" xmlns="http://www.w3.org/2000/svg">
<path d="M31.1274 33.3735L35.6279 37.8739L44.6288 28.873" stroke="#063E75" stroke-width="3.75" stroke-linecap="round" stroke-linejoin="round"/>
<path d="M42.379 19.8721V15.3717C42.3781 14.5825 42.1698 13.8074 41.7749 13.1241C41.3799 12.4408 40.8122 11.8734 40.1287 11.4788L24.3772 2.47794C23.693 2.08295 22.917 1.875 22.127 1.875C21.337 1.875 20.5609 2.08295 19.8768 2.47794L4.12522 11.4788C3.44174 11.8734 2.87405 12.4408 2.4791 13.1241C2.08414 13.8074 1.87581 14.5825 1.875 15.3717V33.3735C1.87581 34.1627 2.08414 34.9378 2.4791 35.6211C2.87405 36.3043 3.44174 36.8717 4.12522 37.2663L19.8768 46.2672C20.5609 46.6622 21.337 46.8702 22.127 46.8702C22.917 46.8702 23.693 46.6622 24.3772 46.2672L28.8776 43.702" stroke="#063E75" stroke-width="3.75" stroke-linecap="round" stroke-linejoin="round"/>
<path d="M12.001 6.97852L32.253 18.5671" stroke="#063E75" stroke-width="3.75" stroke-linecap="round" stroke-linejoin="round"/>
<path d="M2.52734 13.1221L22.1268 24.3732L41.7262 13.1221" stroke="#063E75" stroke-width="3.75" stroke-linecap="round" stroke-linejoin="round"/>
<path d="M22.127 46.8752V24.373" stroke="#063E75" stroke-width="3.75" stroke-linecap="round" stroke-linejoin="round"/>
</svg>
